HIERARCHY
ROOT Hips
{
	OFFSET 0.000000 0.000000 0.000000
	CHANNELS 6 Xposition Yposition Zposition Zrotation Yrotation Xrotation 
	JOINT LHipJoint
	{
		OFFSET 0.000000 0.000000 0.000000
		CHANNELS 3 Zrotation Yrotation Xrotation
		JOINT LeftUpLeg
		{
			OFFSET 1.363060 -1.794630 0.839290
			CHANNELS 3 Zrotation Yrotation Xrotation
			JOINT LeftLeg
			{
				OFFSET 2.448110 -6.726130 0.000000
				CHANNELS 3 Zrotation Yrotation Xrotation
				JOINT LeftFoot
				{
					OFFSET 2.562200 -7.039590 0.000000
					CHANNELS 3 Zrotation Yrotation Xrotation
					JOINT LeftToeBase
					{
						OFFSET 0.157640 -0.433110 2.322550
						CHANNELS 3 Zrotation Yrotation Xrotation
						End Site
						{
							OFFSET 0.000000 0.000000 0.000000
						}
					}
				}
			}
		}
	}
	JOINT RHipJoint
	{
		OFFSET 0.000000 0.000000 0.000000
		CHANNELS 3 Zrotation Yrotation Xrotation
		JOINT RightUpLeg
		{
			OFFSET -1.305520 -1.794630 0.839290
			CHANNELS 3 Zrotation Yrotation Xrotation
			JOINT RightLeg
			{
				OFFSET -2.542530 -6.985550 0.000000
				CHANNELS 3 Zrotation Yrotation Xrotation
				JOINT RightFoot
				{
					OFFSET -2.568260 -7.056230 0.000000
					CHANNELS 3 Zrotation Yrotation Xrotation
					JOINT RightToeBase
					{
						OFFSET -0.164730 -0.452590 2.363150
						CHANNELS 3 Zrotation Yrotation Xrotation
						End Site
						{
							OFFSET 0.000000 0.000000 0.000000
						}
					}
				}
			}
		}
	}
	JOINT LowerBack
	{
		OFFSET 0.000000 0.000000 0.000000
		CHANNELS 3 Zrotation Yrotation Xrotation
		JOINT Spine
		{
			OFFSET 0.028270 2.035590 -0.193380
			CHANNELS 3 Zrotation Yrotation Xrotation
			JOINT Spine1
			{
				OFFSET 0.056720 2.048850 -0.042750
				CHANNELS 3 Zrotation Yrotation Xrotation
				JOINT Neck
				{
					OFFSET 0.000000 0.000000 0.000000
					CHANNELS 3 Zrotation Yrotation Xrotation
					JOINT Neck1
					{
						OFFSET -0.054170 1.746240 0.172020
						CHANNELS 3 Zrotation Yrotation Xrotation
						JOINT Head
						{
							OFFSET 0.104070 1.761360 -0.123970
							CHANNELS 3 Zrotation Yrotation Xrotation
							End Site
							{
								OFFSET 0.000000 0.000000 0.000000
							}
						}
					}
				}
				JOINT LeftShoulder
				{
					OFFSET 0.000000 0.000000 0.000000
					CHANNELS 3 Zrotation Yrotation Xrotation
					JOINT LeftArm
					{
						OFFSET 3.362410 1.200890 -0.311210
						CHANNELS 3 Zrotation Yrotation Xrotation
						JOINT LeftForeArm
						{
							OFFSET 4.983000 -0.000000 -0.000000
							CHANNELS 3 Zrotation Yrotation Xrotation
							JOINT LeftHand
							{
								OFFSET 3.483560 -0.000000 -0.000000
								CHANNELS 3 Zrotation Yrotation Xrotation
								JOINT LeftFingerBase
								{
									OFFSET 0.000000 0.000000 0.000000
									CHANNELS 3 Zrotation Yrotation Xrotation
									JOINT LeftHandIndex1
									{
										OFFSET 0.715260 -0.000000 -0.000000
										CHANNELS 3 Zrotation Yrotation Xrotation
										End Site
										{
											OFFSET 0.000000 0.000000 0.000000
										}
									}
								}
								JOINT LThumb
								{
									OFFSET 0.000000 0.000000 0.000000
									CHANNELS 3 Zrotation Yrotation Xrotation
									End Site
									{
										OFFSET 0.000000 0.000000 0.000000
									}
								}
							}
						}
					}
				}
				JOINT RightShoulder
				{
					OFFSET 0.000000 0.000000 0.000000
					CHANNELS 3 Zrotation Yrotation Xrotation
					JOINT RightArm
					{
						OFFSET -3.136600 1.374050 -0.404650
						CHANNELS 3 Zrotation Yrotation Xrotation
						JOINT RightForeArm
						{
							OFFSET -5.241900 -0.000000 -0.000000
							CHANNELS 3 Zrotation Yrotation Xrotation
							JOINT RightHand
							{
								OFFSET -3.444170 -0.000000 -0.000000
								CHANNELS 3 Zrotation Yrotation Xrotation
								JOINT RightFingerBase
								{
									OFFSET 0.000000 0.000000 0.000000
									CHANNELS 3 Zrotation Yrotation Xrotation
									JOINT RightHandIndex1
									{
										OFFSET -0.622530 -0.000000 -0.000000
										CHANNELS 3 Zrotation Yrotation Xrotation
										End Site
										{
											OFFSET 0.000000 0.000000 0.000000
										}
									}
								}
								JOINT RThumb
								{
									OFFSET 0.000000 0.000000 0.000000
									CHANNELS 3 Zrotation Yrotation Xrotation
									End Site
									{
										OFFSET 0.000000 0.000000 0.000000
									}
								}
							}
						}
					}
				}
			}
		}
	}
}
MOTION
Frames: 9
Frame Time: 0.008333
13.816750 16.598021 2.963585 -140.599807 -87.387909 -167.331086 -8.415819 -0.982404 2.570950 -5.139745 -9.510886 -65.341374 -2.038131 -0.375652 23.480575 3.407016 11.441230 -14.333594 -0.531400 -0.000000 -44.114600 7.663670 0.731007 4.072499 4.268758 12.119926 -64.123626 2.948060 0.494893 18.354147 -2.000252 -5.142718 -9.647317 -0.651400 -0.000000 -62.255900 2.455927 -0.961356 -1.856924 -0.386319 -1.215943 -3.257159 -5.998375 -1.378351 1.170447 7.231791 -6.839962 -7.710645 -3.066478 -0.214685 -0.476719 0.000000 0.000000 0.000000 -1.572572 3.812184 2.790360 -72.026869 8.552638 13.638595 -2.153978 -30.857043 0.000086 1.200103 -1.047506 -0.011949 -0.054200 0.076707 -0.000000 0.000000 0.000000 0.000000 0.000000 0.000000 0.000000 13.915040 -5.404736 2.701525 72.855218 -2.731705 -2.738930 2.450976 20.532595 0.009237 -2.339225 8.438361 -0.183371 0.103779 -0.169473 0.000000 0.000000 0.000000 0.000000 0.000000 0.000000 0.000000 
13.805284 16.506033 2.969553 -142.418784 -87.203920 -164.301778 -8.409258 -0.996229 2.670708 -4.969306 -9.805680 -67.976878 -2.020023 -0.114890 25.901234 3.523595 11.400692 -15.397379 -0.746800 -0.000001 -44.074300 7.582638 0.732885 4.291791 3.684972 12.773838 -67.090538 2.806549 0.167039 21.297426 -2.152456 -5.225411 -10.864052 -0.504200 0.000000 -61.913600 2.336180 -0.927771 -2.089183 -0.420012 -1.187035 -3.329568 -5.979455 -1.354406 1.101682 7.236579 -6.786953 -7.809646 -3.052257 -0.211394 -0.522442 0.000000 0.000000 0.000000 -1.583882 3.725291 2.851868 -71.795657 8.305821 13.944606 -2.125382 -31.397600 -0.000004 1.170826 -1.052060 -0.011740 -0.053577 0.083552 -0.000000 0.000000 0.000000 0.000000 0.000000 0.000000 0.000000 13.969289 -5.266042 2.770053 72.819891 -2.548494 -2.297963 2.386451 21.017906 0.008703 -2.407480 8.513331 -0.190272 0.102389 -0.175911 0.000000 0.000000 0.000000 0.000000 0.000000 0.000000 0.000000 
13.793945 16.405031 2.974856 -144.169210 -87.044432 -161.342099 -8.406434 -1.016801 2.770178 -4.795245 -10.116986 -70.670600 -1.992083 0.168322 28.443191 3.641196 11.363652 -16.486119 -0.970500 -0.000000 -44.037900 7.511586 0.745737 4.504539 3.042887 13.384585 -70.123834 2.637623 -0.178604 24.368313 -2.307209 -5.317967 -12.089126 -0.348900 -0.000000 -61.573800 2.203760 -0.906851 -2.319015 -0.456064 -1.169933 -3.399504 -5.958963 -1.342060 1.037768 7.248847 -6.758509 -7.923144 -3.037835 -0.207870 -0.572997 0.000000 0.000000 0.000000 -1.593230 3.675783 2.913591 -71.541596 8.024020 14.320664 -2.097608 -31.942544 -0.000116 1.172617 -1.074209 -0.012130 -0.053384 0.090703 -0.000000 0.000000 0.000000 0.000000 0.000000 0.000000 0.000000 14.038442 -5.155032 2.835790 72.765144 -2.338094 -1.748817 2.321268 21.513449 0.008075 -2.503507 8.564601 -0.198770 0.101319 -0.182153 0.000000 0.000000 0.000000 0.000000 0.000000 0.000000 0.000000 
13.782763 16.294751 2.979372 -145.968125 -86.914330 -158.342670 -8.406616 -1.045318 2.872950 -4.608204 -10.458180 -73.410966 -1.949020 0.470326 31.095238 3.763238 11.347815 -17.599594 -1.203899 0.000000 -43.972900 7.450734 0.772628 4.708935 2.345189 13.937497 -73.208480 2.443084 -0.537615 27.551593 -2.462661 -5.419422 -13.321178 -0.185100 -0.000000 -61.229300 2.058484 -0.899110 -2.549591 -0.495101 -1.165400 -3.470900 -5.939273 -1.342376 0.967485 7.266880 -6.719151 -8.035649 -3.026112 -0.204560 -0.623657 0.000000 0.000000 0.000000 -1.608598 3.607634 2.977260 -71.263008 7.775460 14.708649 -2.070187 -32.527658 -0.000243 1.190417 -1.108359 -0.012719 -0.053382 0.098054 -0.000000 0.000000 0.000000 0.000000 0.000000 0.000000 0.000000 14.124322 -5.036474 2.901474 72.701193 -2.150558 -1.164795 2.255986 22.043881 0.007384 -2.595077 8.585013 -0.206270 0.100197 -0.188251 0.000000 0.000000 0.000000 0.000000 0.000000 0.000000 0.000000 
13.771589 16.174820 2.983053 -147.913072 -86.819737 -155.208062 -8.408432 -1.083184 2.981401 -4.399148 -10.841842 -76.187652 -1.886156 0.786622 33.847560 3.892565 11.367037 -18.739911 -1.450300 0.000000 -43.847100 7.400342 0.816742 4.902611 1.595529 14.417719 -76.331895 2.225717 -0.906464 30.836968 -2.617414 -5.528099 -14.566360 -0.011700 0.000000 -60.858300 1.901012 -0.906959 -2.781320 -0.536715 -1.175901 -3.542386 -5.919928 -1.357713 0.895607 7.292238 -6.682269 -8.151487 -3.016335 -0.201357 -0.675588 0.000000 0.000000 0.000000 -1.630925 3.537960 3.042415 -70.955883 7.539244 15.124831 -2.044769 -33.135174 -0.000372 1.214815 -1.155131 -0.013607 -0.053584 0.105582 -0.000000 0.000000 0.000000 0.000000 0.000000 0.000000 0.000000 14.227304 -4.925964 2.965312 72.623451 -1.971161 -0.520054 2.191742 22.601553 0.006655 -2.679865 8.577943 -0.212670 0.099053 -0.194127 0.000000 0.000000 0.000000 0.000000 0.000000 0.000000 0.000000 
13.760363 16.045051 2.985865 -150.103526 -86.767063 -151.845143 -8.409969 -1.132091 3.096241 -4.162097 -11.276734 -78.987542 -1.800138 1.112402 36.690461 4.030760 11.429746 -19.909485 -1.713000 -0.000000 -43.632600 7.360613 0.880641 5.082881 0.800020 14.810636 -79.476278 1.989008 -1.282266 34.213113 -2.770479 -5.643531 -15.832330 0.173000 0.000001 -60.440400 1.733881 -0.932286 -3.012570 -0.580331 -1.203403 -3.613420 -5.901397 -1.390034 0.822471 7.325669 -6.648571 -8.269354 -3.008746 -0.198302 -0.728310 0.000000 0.000000 0.000000 -1.664172 3.462051 3.109233 -70.617289 7.317286 15.561621 -2.022327 -33.759870 -0.000484 1.233598 -1.213376 -0.014494 -0.053900 0.113239 -0.000000 0.000000 0.000000 0.000000 0.000000 0.000000 0.000000 14.348131 -4.826123 3.026825 72.531380 -1.800072 0.181138 2.129428 23.183791 0.005921 -2.749052 8.549690 -0.217370 0.097808 -0.199783 0.000000 0.000000 0.000000 0.000000 0.000000 0.000000 0.000000 
13.749150 15.905544 2.987857 -152.661871 -86.761801 -148.141937 -8.408933 -1.193895 3.216158 -3.894595 -11.767918 -81.793099 -1.689046 1.442774 39.613515 4.177910 11.539000 -21.109786 -1.995400 0.000000 -43.310900 7.331531 0.966211 5.246692 -0.032495 15.103164 -82.619396 1.736963 -1.662899 37.667355 -2.921115 -5.766094 -17.126965 0.370500 0.000000 -59.957800 1.561137 -0.976862 -3.239079 -0.625036 -1.249719 -3.682935 -5.884197 -1.441136 0.748058 7.367316 -6.617890 -8.387485 -3.003536 -0.195437 -0.781219 0.000000 0.000000 0.000000 -1.712804 3.373014 3.177966 -70.245620 7.110869 16.008722 -2.003612 -34.395452 -0.000555 1.236170 -1.281646 -0.015378 -0.054228 0.120969 -0.000000 0.000000 0.000000 0.000000 0.000000 0.000000 0.000000 14.486223 -4.738676 3.085717 72.425268 -1.635179 0.929837 2.069820 23.783984 0.005219 -2.796310 8.510722 -0.220070 0.096395 -0.205251 0.000000 0.000000 0.000000 0.000000 0.000000 0.000000 0.000000 
13.737842 15.756476 2.989123 -155.746690 -86.808004 -143.947967 -8.403059 -1.270355 3.338711 -3.597184 -12.317316 -84.585351 -1.552489 1.772905 42.604740 4.332592 11.692834 -22.339528 -2.299800 0.000000 -42.876200 7.313337 1.074047 5.391151 -0.890411 15.284018 -85.735630 1.473836 -2.046920 41.184709 -3.068708 -5.896878 -18.456226 0.582000 -0.000000 -59.398300 1.388214 -1.041950 -3.455308 -0.669743 -1.316178 -3.749599 -5.869031 -1.512335 0.672096 7.417146 -6.589211 -8.503424 -3.001165 -0.192833 -0.833584 0.000000 0.000000 0.000000 -1.782534 3.261892 3.248778 -69.840129 6.921894 16.452816 -1.988799 -35.034635 -0.000568 1.215632 -1.358594 -0.016064 -0.054465 0.128723 -0.000000 0.000000 0.000000 0.000000 0.000000 0.000000 0.000000 14.642457 -4.664655 3.141864 72.304439 -1.472824 1.712524 2.013279 24.392102 0.004576 -2.818688 8.472082 -0.220769 0.094766 -0.210586 0.000000 0.000000 0.000000 0.000000 0.000000 0.000000 0.000000 
13.726318 15.598299 2.989826 -159.572944 -86.907097 -139.057877 -8.389792 -1.363194 3.460141 -3.274377 -12.924118 -87.342963 -1.391591 2.098372 45.650496 4.492025 11.885121 -23.594147 -2.626800 -0.000000 -42.337600 7.306649 1.203268 5.513827 -1.759936 15.344784 -88.797394 1.203679 -2.433634 44.747296 -3.212626 -6.037409 -19.822542 0.808400 -0.000000 -58.758300 1.221539 -1.128208 -3.654734 -0.713324 -1.403517 -3.812108 -5.856948 -1.604351 0.593472 7.474733 -6.559042 -8.613577 -3.002381 -0.190599 -0.884343 0.000000 0.000000 0.000000 -1.879333 3.114775 3.321829 -69.400900 6.755627 16.876060 -1.977564 -35.670955 -0.000511 1.169380 -1.441476 -0.016449 -0.054517 0.136441 -0.000000 0.000000 0.000000 0.000000 0.000000 0.000000 0.000000 14.818150 -4.602434 3.195508 72.169227 -1.310374 2.509108 1.959882 24.995989 0.004010 -2.816320 8.444803 -0.219868 0.092891 -0.215856 0.000000 0.000000 0.000000 0.000000 0.000000 0.000000 0.000000 
